HIERARCHY
ROOT Hip
{
	OFFSET	0.0000	0.0000	0.0000
	CHANNELS 6 Xposition Yposition Zposition Xrotation Yrotation Zrotation
	JOINT LowerSpine
	{
		OFFSET	0.0000	9.9786	-5.3998
		CHANNELS 3 Xrotation Yrotation Zrotation
		JOINT MiddleSpine
		{
			OFFSET	0.0000	9.1062	0.4757
			CHANNELS 3 Xrotation Yrotation Zrotation
			JOINT Chest
			{
				OFFSET	0.0000	11.2679	-2.5081
				CHANNELS 3 Xrotation Yrotation Zrotation
				JOINT Neck
				{
					OFFSET	0.0000	25.3918	-0.5281
					CHANNELS 3 Xrotation Yrotation Zrotation
					JOINT Head
					{
						OFFSET	0.0000	14.3390	3.9002
						CHANNELS 3 Xrotation Yrotation Zrotation
						End Site
						{
							OFFSET	0.0001	20.0354	0.5981
						}
					}
				}
				JOINT LClavicle
				{
					OFFSET	2.5635	24.5043	8.3953
					CHANNELS 3 Xrotation Yrotation Zrotation
					JOINT LShoulder
					{
						OFFSET	14.9764	3.5148	-5.6873
						CHANNELS 3 Xrotation Yrotation Zrotation
						JOINT LForearm
						{
							OFFSET	31.8128	-0.1130	-0.2757
							CHANNELS 3 Xrotation Yrotation Zrotation
							JOINT LHand
							{
								OFFSET	26.5386	0.0770	-0.1589
								CHANNELS 3 Xrotation Yrotation Zrotation
								JOINT LFinger1
								{
									OFFSET	10.2856	0.8995	2.8568
									CHANNELS 3 Xrotation Yrotation Zrotation
									JOINT LFinger11
									{
										OFFSET	3.8473	-0.9382	0.6779
										CHANNELS 3 Xrotation Yrotation Zrotation
										JOINT LFinger12
										{
											OFFSET	2.6265	-0.6407	0.4630
											CHANNELS 3 Xrotation Yrotation Zrotation
											End Site
											{
												OFFSET	1.8690	-0.5579	0.3032
											}
										}
									}
								}
								JOINT LFinger2
								{
									OFFSET	10.4391	1.0388	0.2487
									CHANNELS 3 Xrotation Yrotation Zrotation
									JOINT LFinger21
									{
										OFFSET	4.7570	0.0133	-0.0281
										CHANNELS 3 Xrotation Yrotation Zrotation
										JOINT LFinger22
										{
											OFFSET	2.6367	0.0080	-0.0160
											CHANNELS 3 Xrotation Yrotation Zrotation
											End Site
											{
												OFFSET	2.3683	-0.1672	0.0032
											}
										}
									}
								}
								JOINT LFinger3
								{
									OFFSET	9.8932	0.6931	-2.3405
									CHANNELS 3 Xrotation Yrotation Zrotation
									JOINT LFinger31
									{
										OFFSET	4.3165	-0.2186	-0.2702
										CHANNELS 3 Xrotation Yrotation Zrotation
										JOINT LFinger32
										{
											OFFSET	2.4597	-0.1237	-0.1546
											CHANNELS 3 Xrotation Yrotation Zrotation
											End Site
											{
												OFFSET	2.1748	-0.2674	-0.1028
											}
										}
									}
								}
								JOINT LFinger4
								{
									OFFSET	9.1805	-0.6977	-4.0422
									CHANNELS 3 Xrotation Yrotation Zrotation
									JOINT LFinger41
									{
										OFFSET	2.6551	-0.5537	-0.7329
										CHANNELS 3 Xrotation Yrotation Zrotation
										JOINT LFinger42
										{
											OFFSET	1.9469	-0.4055	-0.5378
											CHANNELS 3 Xrotation Yrotation Zrotation
											End Site
											{
												OFFSET	1.7281	-0.4748	-0.3965
											}
										}
									}
								}
								JOINT LFinger0
								{
									OFFSET	2.1276	-1.6104	1.6129
									CHANNELS 3 Xrotation Yrotation Zrotation
									JOINT LFinger01
									{
										OFFSET	3.9614	-1.3011	2.9868
										CHANNELS 3 Xrotation Yrotation Zrotation
										JOINT LFinger02
										{
											OFFSET	2.6086	-0.9334	1.8794
											CHANNELS 3 Xrotation Yrotation Zrotation
											End Site
											{
												OFFSET	1.9183	-0.6603	1.3135
											}
										}
									}
								}
							}
						}
					}
				}
				JOINT RClavicle
				{
					OFFSET	-2.5635	24.5043	8.3953
					CHANNELS 3 Xrotation Yrotation Zrotation
					JOINT RShoulder
					{
						OFFSET	-14.9790	3.5154	-5.6882
						CHANNELS 3 Xrotation Yrotation Zrotation
						JOINT RForearm
						{
							OFFSET	-31.8128	-0.1130	-0.2757
							CHANNELS 3 Xrotation Yrotation Zrotation
							JOINT RHand
							{
								OFFSET	-26.5386	0.0770	-0.1589
								CHANNELS 3 Xrotation Yrotation Zrotation
								JOINT RFinger1
								{
									OFFSET	-10.2856	0.8995	2.8568
									CHANNELS 3 Xrotation Yrotation Zrotation
									JOINT RFinger11
									{
										OFFSET	-3.8473	-0.9382	0.6779
										CHANNELS 3 Xrotation Yrotation Zrotation
										JOINT RFinger12
										{
											OFFSET	-2.6265	-0.6407	0.4630
											CHANNELS 3 Xrotation Yrotation Zrotation
											End Site
											{
												OFFSET	-1.8690	-0.5579	0.3032
											}
										}
									}
								}
								JOINT RFinger2
								{
									OFFSET	-10.4391	1.0388	0.2487
									CHANNELS 3 Xrotation Yrotation Zrotation
									JOINT RFinger21
									{
										OFFSET	-4.7570	0.0133	-0.0281
										CHANNELS 3 Xrotation Yrotation Zrotation
										JOINT RFinger22
										{
											OFFSET	-2.6367	0.0080	-0.0160
											CHANNELS 3 Xrotation Yrotation Zrotation
											End Site
											{
												OFFSET	-2.3683	-0.1672	0.0032
											}
										}
									}
								}
								JOINT RFinger3
								{
									OFFSET	-9.8932	0.6931	-2.3405
									CHANNELS 3 Xrotation Yrotation Zrotation
									JOINT RFinger31
									{
										OFFSET	-4.3165	-0.2185	-0.2702
										CHANNELS 3 Xrotation Yrotation Zrotation
										JOINT RFinger32
										{
											OFFSET	-2.4597	-0.1237	-0.1546
											CHANNELS 3 Xrotation Yrotation Zrotation
											End Site
											{
												OFFSET	-2.1748	-0.2674	-0.1028
											}
										}
									}
								}
								JOINT RFinger4
								{
									OFFSET	-9.1805	-0.6977	-4.0422
									CHANNELS 3 Xrotation Yrotation Zrotation
									JOINT RFinger41
									{
										OFFSET	-2.6551	-0.5537	-0.7329
										CHANNELS 3 Xrotation Yrotation Zrotation
										JOINT RFinger42
										{
											OFFSET	-1.9469	-0.4055	-0.5378
											CHANNELS 3 Xrotation Yrotation Zrotation
											End Site
											{
												OFFSET	-1.7281	-0.4748	-0.3965
											}
										}
									}
								}
								JOINT RFinger0
								{
									OFFSET	-2.1276	-1.6104	1.6130
									CHANNELS 3 Xrotation Yrotation Zrotation
									JOINT RFinger01
									{
										OFFSET	-3.9614	-1.3011	2.9868
										CHANNELS 3 Xrotation Yrotation Zrotation
										JOINT RFinger02
										{
											OFFSET	-2.6086	-0.9334	1.8794
											CHANNELS 3 Xrotation Yrotation Zrotation
											End Site
											{
												OFFSET	-1.9183	-0.6603	1.3135
											}
										}
									}
								}
							}
						}
					}
				}
			}
		}
	}
	JOINT RThigh
	{
		OFFSET	-10.6746	4.5106	-0.8799
		CHANNELS 3 Xrotation Yrotation Zrotation
		JOINT RShin
		{
			OFFSET	-0.8542	-46.4297	0.0000
			CHANNELS 3 Xrotation Yrotation Zrotation
			JOINT RFoot
			{
				OFFSET	0.0000	-45.5911	0.0000
				CHANNELS 3 Xrotation Yrotation Zrotation
				JOINT RToe
				{
					OFFSET	0.0000	-5.0109	10.4784
					CHANNELS 3 Xrotation Yrotation Zrotation
					End Site
					{
						OFFSET	0.0000	0.0000	7.0295
					}
				}
			}
		}
	}
	JOINT LThigh
	{
		OFFSET	10.6745	4.5109	-0.8799
		CHANNELS 3 Xrotation Yrotation Zrotation
		JOINT LShin
		{
			OFFSET	0.8542	-46.4301	0.0000
			CHANNELS 3 Xrotation Yrotation Zrotation
			JOINT LFoot
			{
				OFFSET	0.0000	-45.5911	0.0000
				CHANNELS 3 Xrotation Yrotation Zrotation
				JOINT LToe
				{
					OFFSET	0.0000	-5.0109	10.4784
					CHANNELS 3 Xrotation Yrotation Zrotation
					End Site
					{
						OFFSET	0.0000	0.0000	7.0295
					}
				}
			}
		}
	}
}
MOTION
Frames:	7
Frame Time: 0.0333333000
	1.2039	96.9292	6.1831	-11.743060	7.993439	-0.288320	0.000000	0.000000	0.000000	1.335598	0.439189	0.146801	4.418649	1.477299	0.438860	0.000000	0.000000	0.000000	0.000000	0.000000	0.000000	0.000000	0.000000	-14.102900	19.260890	-31.855890	-49.490760	9.894144	-31.770860	-0.109418	0.000000	0.000000	0.000000	0.000000	0.000000	0.000000	0.000000	0.000000	0.000000	0.000000	0.000000	0.000000	0.000000	0.000000	0.000000	0.000000	0.000000	0.000000	0.000000	0.000000	0.000000	0.000000	0.000000	0.000000	0.000000	0.000000	0.000000	0.000000	0.000000	0.000000	0.000000	0.000000	0.000000	0.000000	0.000000	0.000000	0.000000	0.000000	0.000000	0.000000	0.000000	0.000000	0.000000	0.000000	0.000000	0.000000	0.000000	0.000000	0.000000	0.000000	13.091220	24.022870	27.676480	48.853290	12.729160	41.762610	0.181059	0.000000	0.000000	0.000000	0.000000	0.000000	0.000000	0.000000	0.000000	0.000000	0.000000	0.000000	0.000000	0.000000	0.000000	0.000000	0.000000	0.000000	0.000000	0.000000	0.000000	0.000000	0.000000	0.000000	0.000000	0.000000	0.000000	0.000000	0.000000	0.000000	0.000000	0.000000	0.000000	0.000000	0.000000	0.000000	0.000000	0.000000	0.000000	0.000000	0.000000	0.000000	0.000000	0.000000	0.000000	0.000000	0.000000	0.000000	0.000000	8.661128	-0.265537	-0.510110	4.405497	1.557332	1.489869	-1.446330	-3.084468	-1.523471	0.000000	0.000000	0.000000	7.047876	0.649942	2.893906	8.631574	0.185154	0.079350	-1.013170	-1.461046	-0.714638	0.000000	0.000000	0.000000
	1.2243	96.8635	5.8209	-11.212140	7.608647	-0.308702	0.000000	0.000000	0.000000	1.425144	0.428251	0.165622	4.732177	1.442887	0.505603	0.000000	0.000000	0.000000	0.000000	0.000000	0.000000	0.000000	0.000000	-14.102460	19.078010	-31.215590	-50.111920	9.411492	-31.936610	-0.102904	0.000000	0.000000	0.000000	0.000000	0.000000	0.000000	0.000000	0.000000	0.000000	0.000000	0.000000	0.000000	0.000000	0.000000	0.000000	0.000000	0.000000	0.000000	0.000000	0.000000	0.000000	0.000000	0.000000	0.000000	0.000000	0.000000	0.000000	0.000000	0.000000	0.000000	0.000000	0.000000	0.000000	0.000000	0.000000	0.000000	0.000000	0.000000	0.000000	0.000000	0.000000	0.000000	0.000000	0.000000	0.000000	0.000000	0.000000	0.000000	0.000000	0.000000	13.142260	23.343680	27.652200	49.114480	12.053460	41.497780	0.173462	0.000000	0.000000	0.000000	0.000000	0.000000	0.000000	0.000000	0.000000	0.000000	0.000000	0.000000	0.000000	0.000000	0.000000	0.000000	0.000000	0.000000	0.000000	0.000000	0.000000	0.000000	0.000000	0.000000	0.000000	0.000000	0.000000	0.000000	0.000000	0.000000	0.000000	0.000000	0.000000	0.000000	0.000000	0.000000	0.000000	0.000000	0.000000	0.000000	0.000000	0.000000	0.000000	0.000000	0.000000	0.000000	0.000000	0.000000	0.000000	7.849097	-0.257024	-0.692126	4.537158	1.581109	1.517050	-1.597285	-2.945182	-1.459154	0.000000	0.000000	0.000000	6.371058	0.594604	2.725304	8.756362	0.169509	0.098828	-1.104771	-1.291924	-0.633176	0.000000	0.000000	0.000000
	1.2189	96.7675	5.3173	-10.299260	6.759688	-0.371353	0.000000	0.000000	0.000000	1.516288	0.419240	0.185605	5.043636	1.415926	0.573502	0.000000	0.000000	0.000000	0.000000	0.000000	0.000000	0.000000	0.000000	-14.084600	18.738470	-29.965210	-51.080680	8.489476	-32.349990	-0.094085	0.000000	0.000000	0.000000	0.000000	0.000000	0.000000	0.000000	0.000000	0.000000	0.000000	0.000000	0.000000	0.000000	0.000000	0.000000	0.000000	0.000000	0.000000	0.000000	0.000000	0.000000	0.000000	0.000000	0.000000	0.000000	0.000000	0.000000	0.000000	0.000000	0.000000	0.000000	0.000000	0.000000	0.000000	0.000000	0.000000	0.000000	0.000000	0.000000	0.000000	0.000000	0.000000	0.000000	0.000000	0.000000	0.000000	0.000000	0.000000	0.000000	0.000000	13.188690	22.497520	27.915410	49.170430	11.360980	41.378080	0.164504	0.000000	0.000000	0.000000	0.000000	0.000000	0.000000	0.000000	0.000000	0.000000	0.000000	0.000000	0.000000	0.000000	0.000000	0.000000	0.000000	0.000000	0.000000	0.000000	0.000000	0.000000	0.000000	0.000000	0.000000	0.000000	0.000000	0.000000	0.000000	0.000000	0.000000	0.000000	0.000000	0.000000	0.000000	0.000000	0.000000	0.000000	0.000000	0.000000	0.000000	0.000000	0.000000	0.000000	0.000000	0.000000	0.000000	0.000000	0.000000	6.415416	-0.233159	-0.963150	4.909997	1.612269	1.610201	-1.878663	-2.509069	-1.250114	0.000000	0.000000	0.000000	5.322876	0.523622	2.533344	8.868858	0.140069	0.020517	-1.193790	-0.713688	-0.350180	0.000000	0.000000	0.000000
	1.2015	96.6376	4.5981	-8.994605	5.445571	-0.449818	0.000000	0.000000	0.000000	1.608138	0.412021	0.206772	5.351122	1.395269	0.642780	0.000000	0.000000	0.000000	0.000000	0.000000	0.000000	0.000000	0.000000	-14.079540	18.266030	-28.352020	-52.295350	7.221522	-32.953980	-0.082905	0.000000	0.000000	0.000000	0.000000	0.000000	0.000000	0.000000	0.000000	0.000000	0.000000	0.000000	0.000000	0.000000	0.000000	0.000000	0.000000	0.000000	0.000000	0.000000	0.000000	0.000000	0.000000	0.000000	0.000000	0.000000	0.000000	0.000000	0.000000	0.000000	0.000000	0.000000	0.000000	0.000000	0.000000	0.000000	0.000000	0.000000	0.000000	0.000000	0.000000	0.000000	0.000000	0.000000	0.000000	0.000000	0.000000	0.000000	0.000000	0.000000	0.000000	13.230760	21.594670	28.670360	48.782660	10.867320	41.433780	0.159563	0.000000	0.000000	0.000000	0.000000	0.000000	0.000000	0.000000	0.000000	0.000000	0.000000	0.000000	0.000000	0.000000	0.000000	0.000000	0.000000	0.000000	0.000000	0.000000	0.000000	0.000000	0.000000	0.000000	0.000000	0.000000	0.000000	0.000000	0.000000	0.000000	0.000000	0.000000	0.000000	0.000000	0.000000	0.000000	0.000000	0.000000	0.000000	0.000000	0.000000	0.000000	0.000000	0.000000	0.000000	0.000000	0.000000	0.000000	0.000000	4.525640	-0.193842	-1.329243	5.064064	1.644730	1.791859	-2.062039	-1.757628	-0.879698	0.000000	0.000000	0.000000	3.849386	0.435604	2.293010	8.957455	0.101600	-0.097201	-1.225746	0.272929	0.134286	0.000000	0.000000	0.000000
	1.1906	96.4982	3.7134	-7.582929	4.035498	-0.510827	0.000000	0.000000	0.000000	1.699869	0.406452	0.229140	5.670093	1.377902	0.718134	0.000000	0.000000	0.000000	0.000000	0.000000	0.000000	0.000000	0.000000	-14.071220	17.618400	-26.500950	-53.727430	5.591699	-33.814060	-0.063882	0.000000	0.000000	0.000000	0.000000	0.000000	0.000000	0.000000	0.000000	0.000000	0.000000	0.000000	0.000000	0.000000	0.000000	0.000000	0.000000	0.000000	0.000000	0.000000	0.000000	0.000000	0.000000	0.000000	0.000000	0.000000	0.000000	0.000000	0.000000	0.000000	0.000000	0.000000	0.000000	0.000000	0.000000	0.000000	0.000000	0.000000	0.000000	0.000000	0.000000	0.000000	0.000000	0.000000	0.000000	0.000000	0.000000	0.000000	0.000000	0.000000	0.000000	13.266780	20.703700	29.766650	48.130710	10.545080	41.455370	0.158425	0.000000	0.000000	0.000000	0.000000	0.000000	0.000000	0.000000	0.000000	0.000000	0.000000	0.000000	0.000000	0.000000	0.000000	0.000000	0.000000	0.000000	0.000000	0.000000	0.000000	0.000000	0.000000	0.000000	0.000000	0.000000	0.000000	0.000000	0.000000	0.000000	0.000000	0.000000	0.000000	0.000000	0.000000	0.000000	0.000000	0.000000	0.000000	0.000000	0.000000	0.000000	0.000000	0.000000	0.000000	0.000000	0.000000	0.000000	0.000000	2.654444	-0.143180	-1.699316	4.731567	1.671677	2.020689	-1.895649	-0.995499	-0.497320	0.000000	0.000000	0.000000	2.327022	0.352229	2.084685	8.752363	0.055439	-0.256156	-1.112129	1.307851	0.641064	0.000000	0.000000	0.000000
	1.1947	96.3991	2.9530	-6.510032	3.069963	-0.563573	0.000000	0.000000	0.000000	1.790711	0.402385	0.252692	6.075491	1.358936	0.810675	0.000000	0.000000	0.000000	0.000000	0.000000	0.000000	0.000000	0.000000	-14.068720	16.896590	-24.763620	-55.097080	3.878751	-34.869690	-0.053063	0.000000	0.000000	0.000000	0.000000	0.000000	0.000000	0.000000	0.000000	0.000000	0.000000	0.000000	0.000000	0.000000	0.000000	0.000000	0.000000	0.000000	0.000000	0.000000	0.000000	0.000000	0.000000	0.000000	0.000000	0.000000	0.000000	0.000000	0.000000	0.000000	0.000000	0.000000	0.000000	0.000000	0.000000	0.000000	0.000000	0.000000	0.000000	0.000000	0.000000	0.000000	0.000000	0.000000	0.000000	0.000000	0.000000	0.000000	0.000000	0.000000	0.000000	13.293230	19.874950	30.554590	47.750050	10.135910	41.408870	0.153884	0.000000	0.000000	0.000000	0.000000	0.000000	0.000000	0.000000	0.000000	0.000000	0.000000	0.000000	0.000000	0.000000	0.000000	0.000000	0.000000	0.000000	0.000000	0.000000	0.000000	0.000000	0.000000	0.000000	0.000000	0.000000	0.000000	0.000000	0.000000	0.000000	0.000000	0.000000	0.000000	0.000000	0.000000	0.000000	0.000000	0.000000	0.000000	0.000000	0.000000	0.000000	0.000000	0.000000	0.000000	0.000000	0.000000	0.000000	0.000000	1.397056	-0.098864	-1.913435	4.071517	1.686049	2.150943	-1.404235	-0.539365	-0.266121	0.000000	0.000000	0.000000	1.485276	0.300572	2.037314	7.838138	0.003045	-0.501784	-0.835903	1.943492	0.946820	0.000000	0.000000	0.000000
	1.2250	96.3607	2.4993	-5.984855	2.732519	-0.610404	0.000000	0.000000	0.000000	1.879948	0.399683	0.277371	6.650713	1.342682	0.926653	0.000000	0.000000	0.000000	0.000000	0.000000	0.000000	0.000000	0.000000	-14.064830	16.265450	-23.743810	-56.056430	2.608130	-35.726670	-0.058777	0.000000	0.000000	0.000000	0.000000	0.000000	0.000000	0.000000	0.000000	0.000000	0.000000	0.000000	0.000000	0.000000	0.000000	0.000000	0.000000	0.000000	0.000000	0.000000	0.000000	0.000000	0.000000	0.000000	0.000000	0.000000	0.000000	0.000000	0.000000	0.000000	0.000000	0.000000	0.000000	0.000000	0.000000	0.000000	0.000000	0.000000	0.000000	0.000000	0.000000	0.000000	0.000000	0.000000	0.000000	0.000000	0.000000	0.000000	0.000000	0.000000	0.000000	13.342430	19.222210	30.728040	47.718110	9.627316	41.503390	0.148186	0.000000	0.000000	0.000000	0.000000	0.000000	0.000000	0.000000	0.000000	0.000000	0.000000	0.000000	0.000000	0.000000	0.000000	0.000000	0.000000	0.000000	0.000000	0.000000	0.000000	0.000000	0.000000	0.000000	0.000000	0.000000	0.000000	0.000000	0.000000	0.000000	0.000000	0.000000	0.000000	0.000000	0.000000	0.000000	0.000000	0.000000	0.000000	0.000000	0.000000	0.000000	0.000000	0.000000	0.000000	0.000000	0.000000	0.000000	0.000000	0.961177	-0.080053	-1.972897	3.357062	1.692701	2.145899	-0.838908	-0.417668	-0.203458	0.000000	0.000000	0.000000	1.489914	0.279946	2.088718	6.459455	-0.042976	-0.724260	-0.510336	2.074862	1.003466	0.000000	0.000000	0.000000
